:SAMPLES-PER-SECOND 30
:FULLY-SPECIFIED
:DEGREES
440
root  -9.99921 34.4686 -13.7342 -171.212 51.9875 176.762
RightUpLeg  -21.1323 -34.276 6.33162
RightLeg  7.19472 -5.41785 -0.330064
RightFoot  6.27347 0.0598833 -0.522391
RightToes  -18.0046 -0.0723886 -0.160588
Spine  1.08875 0.230969 3.67121
Spine1  2.11968 0.299854 7.77241
HEad  -25.3745 20.7044 14.5594
LeftShoulder1  -1.94126e-019 -3.10601e-018 -2.51263e-017
LeftArm  -19.7133 25.001 -85.1178
LeftForeArm  33.7512 -12.3721 -2.19379
LeftHand  -0.418506 -0.0118918 9.06337
RightShoulder  -4.96962e-017 0 -2.36833e-017
RightArm  -28.2773 -19.3336 65.6987
RightForeArm  62.0049 9.75767 1.52511
RightHand  -0.265067 -2.58281 -10.6076
LeftUpLeg  -21.7087 13.9248 0.879007
LeftLeg  21.3205 15.8676 4.96555
LeftFoot  2.96398 -0.0200725 0.937411
LeftToes  -20.3372 1.46665e-006 1.03344e-007
441
root  -10.3294 34.426 -13.6318 -170.22 50.5995 177.417
RightUpLeg  -22.3748 -35.2801 7.26169
RightLeg  7.35482 -5.65938 -0.360601
RightFoot  6.64062 0.0682569 -0.608663
RightToes  -18.5253 -0.0749836 -0.164861
Spine  0.825986 -0.214663 3.67263
Spine1  1.55621 -0.649582 7.80479
HEad  -25.5285 20.3428 14.3084
LeftShoulder1  -1.94126e-019 -3.10601e-018 -2.51263e-017
LeftArm  -20.4479 23.899 -85.8363
LeftForeArm  34.347 -11.0683 -1.95502
LeftHand  -0.407048 0.423285 9.54709
RightShoulder  -4.96962e-017 0 -2.36833e-017
RightArm  -30.379 -20.3553 65.2354
RightForeArm  63.3538 9.14946 1.48646
RightHand  -0.268559 -2.66182 -11.0577
LeftUpLeg  -21.117 17.8063 1.1285
LeftLeg  23.6187 17.4698 6.2112
LeftFoot  1.65362 -0.00620917 0.591821
LeftToes  -17.731 1.46665e-006 1.03344e-007
442
root  -10.7104 34.4014 -13.5625 -169.494 48.7714 177.828
RightUpLeg  -23.4551 -36.6368 7.97937
RightLeg  7.24642 -6.01715 -0.371937
RightFoot  7.21728 0.0818913 -0.727664
RightToes  -19.2992 -0.0775867 -0.171164
Spine  0.545352 -0.701737 3.66382
Spine1  0.963153 -1.66355 7.82239
HEad  -26.7717 19.8722 13.297
LeftShoulder1  -1.94126e-019 -3.10601e-018 -2.51263e-017
LeftArm  -19.5151 24.1895 -86.5859
LeftForeArm  33.0183 -14.053 -2.5095
LeftHand  -0.381447 0.236581 8.63854
RightShoulder  -4.96962e-017 0 -2.36833e-017
RightArm  -33.0509 -21.5169 64.9932
RightForeArm  62.7971 9.15159 1.48803
RightHand  -0.222022 -3.21178 -11.261
LeftUpLeg  -20.8447 23.6134 0.810623
LeftLeg  26.1847 19.5728 7.89754
LeftFoot  0.791056 -0.00119615 0.334856
LeftToes  -14.7763 1.46665e-006 1.03344e-007
443
root  -11.149 34.3763 -13.5255 -168.903 46.2962 178.179
RightUpLeg  -24.4755 -38.3819 8.55458
RightLeg  7.1843 -6.54862 -0.397569
RightFoot  7.79358 0.0983624 -0.869699
RightToes  -19.8359 -0.0805456 -0.175501
Spine  0.251368 -1.22025 3.68929
Spine1  0.344869 -2.72397 7.92296
HEad  -28.5659 19.1288 11.9411
LeftShoulder1  -1.94126e-019 -3.10601e-018 -2.51263e-017
LeftArm  -16.245 25.6288 -86.997
LeftForeArm  29.7453 -20.813 -3.63877
LeftHand  -0.328909 -0.608064 6.4714
RightShoulder  -4.96962e-017 0 -2.36833e-017
RightArm  -35.1762 -22.9777 64.9689
RightForeArm  60.4355 9.71742 1.52632
RightHand  -0.167287 -3.82478 -11.4487
LeftUpLeg  -20.9449 29.3917 0.316281
LeftLeg  29.165 22.3678 10.2763
LeftFoot  -1.42749 -0.00971082 -0.617894
LeftToes  -10.1874 1.46665e-006 1.03344e-007
444
root  -11.6425 34.3413 -13.5055 -168.367 43.4176 178.533
RightUpLeg  -25.5943 -40.2464 9.02853
RightLeg  7.43703 -7.4021 -0.481814
RightFoot  8.34586 0.119882 -1.06364
RightToes  -21.0782 -0.0875507 -0.185435
Spine  0.00749407 -1.64039 3.72632
Spine1  -0.171065 -3.58446 8.05448
HEad  -30.7114 17.914 10.6099
LeftShoulder1  -1.94126e-019 -3.10601e-018 -2.51263e-017
LeftArm  -11.0316 26.9207 -86.8726
LeftForeArm  27.22 -28.9997 -4.7755
LeftHand  -0.280002 -1.65606 4.78174
RightShoulder  -4.96962e-017 0 -2.36833e-017
RightArm  -35.6938 -24.705 65.2772
RightForeArm  56.5207 10.822 1.54656
RightHand  -0.124798 -4.2788 -11.5191
LeftUpLeg  -21.2395 33.7965 0.00108562
LeftLeg  32.0805 24.5613 12.6617
LeftFoot  -4.12102 -0.0813921 -2.10036
LeftToes  -2.51343 1.46665e-006 1.03344e-007
445
root  -12.1721 34.2744 -13.5081 -167.987 40.1384 179.023
RightUpLeg  -26.5205 -42.4587 9.40212
RightLeg  7.90723 -8.24821 -0.604288
RightFoot  8.81999 0.142717 -1.26587
RightToes  -22.1648 -0.0938523 -0.193996
Spine  -0.122561 -1.95205 3.80552
Spine1  -0.463384 -4.24122 8.27279
HEad  -33.0377 15.9948 9.59543
LeftShoulder1  -1.94126e-019 -3.10601e-018 -2.51263e-017
LeftArm  -6.05287 27.4826 -86.3881
LeftForeArm  29.7576 -37.2958 -6.70551
LeftHand  -0.313176 -2.09306 5.05178
RightShoulder  -4.96962e-017 0 -2.36833e-017
RightArm  -34.9731 -26.4773 65.8974
RightForeArm  52.3254 12.1058 1.50583
RightHand  -0.101352 -4.53271 -11.6451
LeftUpLeg  -21.506 36.599 -0.00220097
LeftLeg  34.6319 24.9821 14.2073
LeftFoot  -6.24296 -0.191185 -3.3431
LeftToes  1.28124 1.46665e-006 1.03344e-007
446
root  -12.7507 34.176 -13.5337 -167.579 36.6831 179.681
RightUpLeg  -27.4022 -44.7359 9.76809
RightLeg  8.49288 -9.21892 -0.769174
RightFoot  9.35578 0.17228 -1.51476
RightToes  -23.4343 -0.101419 -0.203845
Spine  -0.23892 -2.07766 3.97237
Spine1  -0.727776 -4.52506 8.66406
HEad  -34.9067 13.7159 8.72176
LeftShoulder1  -1.94126e-019 -3.10601e-018 -2.51263e-017
LeftArm  -1.66706 27.1088 -86.0183
LeftForeArm  34.3111 -44.3214 -8.57678
LeftHand  -0.395968 -2.35787 6.14105
RightShoulder  -4.96962e-017 0 -2.36833e-017
RightArm  -33.7634 -27.9087 66.4576
RightForeArm  49.4325 12.8343 1.47605
RightHand  -0.088334 -4.67514 -11.788
LeftUpLeg  -21.6829 37.7795 0.206207
LeftLeg  36.0023 24.5568 14.7267
LeftFoot  -7.21579 -0.252974 -3.84885
LeftToes  3.20379 1.46665e-006 1.03344e-007
447
root  -13.3808 34.0659 -13.6113 -167.499 33.305 -179.823
RightUpLeg  -28.0727 -46.8531 9.57898
RightLeg  9.46967 -10.36 -1.04045
RightFoot  9.96188 0.211271 -1.82642
RightToes  -24.6586 -0.108922 -0.213183
Spine  -0.363856 -2.09297 4.12026
Spine1  -1.00318 -4.5814 9.00534
HEad  -35.8831 11.8043 8.06391
LeftShoulder1  -1.94126e-019 -3.10601e-018 -2.51263e-017
LeftArm  0.66775 26.6527 -86.0173
LeftForeArm  34.8897 -50.2439 -10.8159
LeftHand  -0.380677 -2.8303 5.60453
RightShoulder  -4.96962e-017 0 -2.36833e-017
RightArm  -32.6813 -28.7109 66.9689
RightForeArm  48.9057 12.7865 1.48616
RightHand  -0.101058 -4.52699 -11.5181
LeftUpLeg  -21.1069 37.7907 0.352704
LeftLeg  35.0811 23.9327 13.9024
LeftFoot  -7.07973 -0.234577 -3.62903
LeftToes  2.54153 1.46665e-006 1.03344e-007
